<svg xmlns="http://www.w3.org/2000/svg" version="1.1" xmlns:xlink="http://www.w3.org/1999/xlink" xmlns:svgjs="http://svgjs.com/svgjs" width="1440" height="560" preserveAspectRatio="none" viewBox="0 0 1440 560"><g mask="url(&quot;#SvgjsMask1000&quot;)" fill="none"><rect width="1440" height="560" x="0" y="0" fill="#0e2a47"></rect><path d="M0,397.272C76.88,392.477,158.185,388.151,219.405,341.401C278.899,295.969,297.525,218.087,325.546,148.672C352.311,82.366,371.577,16.569,379.227,-54.525C389.124,-146.491,423.462,-246.597,376.667,-326.384C328.849,-407.917,228.246,-441.868,137.187,-467.215C47.023,-492.312,-49.43,-500.176,-137.891,-469.612C-224.29,-439.76,-285.364,-368.207,-346.377,-300.138C-408.369,-230.978,-476.678,-162.221,-495.031,-71.175C-513.841,22.139,-496.097,122.431,-448.133,204.655C-402.268,283.281,-321.357,333.97,-237.73,369.915C-162.932,402.065,-81.257,402.34,0,397.272" fill="#0b2239"></path><path d="M1440 1056.432C1551.012 1075.5059999999999 1672.144 1129.144 1770.585 1074.4 1869.149 1019.587 1885.843 887.557 1930.158 783.848 1973.318 682.843 2030.239 585.46 2026.4189999999999 475.68600000000004 2022.367 359.243 1986.653 240.44600000000003 1908.248 154.26100000000002 1830.6 68.90800000000002 1711.484 44.789999999999964 1601.807 8.937000000000012 1488.687-28.04200000000003 1374.206-85.98199999999997 1258.498-58.139999999999986 1140.975-29.86099999999999 1056.583 67.82400000000001 977.427 159.178 898.272 250.52999999999997 817.043 348.34000000000003 802.333 468.317 787.74 587.338 826.6 711.167 897.933 807.554 963.1800000000001 895.7180000000001 1075.484 926.331 1175.162 972.096 1261.1 1011.553 1346.8029999999999 1040.4189999999999 1440 1056.432" fill="#113255"></path></g><defs><mask id="SvgjsMask1000"><rect width="1440" height="560" fill="#ffffff"></rect></mask></defs></svg>